<mxfile host="Electron" modified="2024-07-03T13:31:35.777Z" agent="Mozilla/5.0 (X11; Linux x86_64) AppleWebKit/537.36 (KHTML, like Gecko) draw.io/24.2.5 Chrome/120.0.6099.109 Electron/28.1.0 Safari/537.36" etag="0KbW0WjVMhRE7l2wYRWn" version="24.2.5" type="device">
  <diagram name="Page-1" id="vKgUk93YX9hdjw7MQdaS">
    <mxGraphModel dx="1687" dy="992" grid="1" gridSize="10" guides="1" tooltips="1" connect="1" arrows="1" fold="1" page="1" pageScale="1" pageWidth="4681" pageHeight="3300" math="0" shadow="0">
      <root>
        <mxCell id="0" />
        <mxCell id="1" parent="0" />
        <mxCell id="pK-a6xWYDuCwZzblca8W-14" value="Article" style="swimlane;fontStyle=0;childLayout=stackLayout;horizontal=1;startSize=26;horizontalStack=0;resizeParent=1;resizeParentMax=0;resizeLast=0;collapsible=1;marginBottom=0;align=center;fontSize=14;" parent="1" vertex="1">
          <mxGeometry x="320" y="1220" width="160" height="150" as="geometry" />
        </mxCell>
        <mxCell id="pK-a6xWYDuCwZzblca8W-15" value="description" style="text;strokeColor=none;fillColor=none;spacingLeft=4;spacingRight=4;overflow=hidden;rotatable=0;points=[[0,0.5],[1,0.5]];portConstraint=eastwest;fontSize=12;whiteSpace=wrap;html=1;" parent="pK-a6xWYDuCwZzblca8W-14" vertex="1">
          <mxGeometry y="26" width="160" height="30" as="geometry" />
        </mxCell>
        <mxCell id="pK-a6xWYDuCwZzblca8W-16" value="titre" style="text;strokeColor=none;fillColor=none;spacingLeft=4;spacingRight=4;overflow=hidden;rotatable=0;points=[[0,0.5],[1,0.5]];portConstraint=eastwest;fontSize=12;whiteSpace=wrap;html=1;" parent="pK-a6xWYDuCwZzblca8W-14" vertex="1">
          <mxGeometry y="56" width="160" height="30" as="geometry" />
        </mxCell>
        <mxCell id="pK-a6xWYDuCwZzblca8W-18" value="prix&lt;div&gt;&lt;br&gt;&lt;/div&gt;" style="text;strokeColor=none;fillColor=none;spacingLeft=4;spacingRight=4;overflow=hidden;rotatable=0;points=[[0,0.5],[1,0.5]];portConstraint=eastwest;fontSize=12;whiteSpace=wrap;html=1;" parent="pK-a6xWYDuCwZzblca8W-14" vertex="1">
          <mxGeometry y="86" width="160" height="30" as="geometry" />
        </mxCell>
        <mxCell id="pK-a6xWYDuCwZzblca8W-17" value="photo" style="text;strokeColor=none;fillColor=none;spacingLeft=4;spacingRight=4;overflow=hidden;rotatable=0;points=[[0,0.5],[1,0.5]];portConstraint=eastwest;fontSize=12;whiteSpace=wrap;html=1;" parent="pK-a6xWYDuCwZzblca8W-14" vertex="1">
          <mxGeometry y="116" width="160" height="34" as="geometry" />
        </mxCell>
        <mxCell id="pK-a6xWYDuCwZzblca8W-33" value="Categorie" style="swimlane;fontStyle=0;childLayout=stackLayout;horizontal=1;startSize=26;horizontalStack=0;resizeParent=1;resizeParentMax=0;resizeLast=0;collapsible=1;marginBottom=0;align=center;fontSize=14;" parent="1" vertex="1">
          <mxGeometry x="810" y="1230" width="160" height="146" as="geometry" />
        </mxCell>
        <mxCell id="pK-a6xWYDuCwZzblca8W-34" value="Chaussure" style="text;strokeColor=none;fillColor=none;spacingLeft=4;spacingRight=4;overflow=hidden;rotatable=0;points=[[0,0.5],[1,0.5]];portConstraint=eastwest;fontSize=12;whiteSpace=wrap;html=1;" parent="pK-a6xWYDuCwZzblca8W-33" vertex="1">
          <mxGeometry y="26" width="160" height="30" as="geometry" />
        </mxCell>
        <mxCell id="pK-a6xWYDuCwZzblca8W-35" value="Pantalon" style="text;strokeColor=none;fillColor=none;spacingLeft=4;spacingRight=4;overflow=hidden;rotatable=0;points=[[0,0.5],[1,0.5]];portConstraint=eastwest;fontSize=12;whiteSpace=wrap;html=1;" parent="pK-a6xWYDuCwZzblca8W-33" vertex="1">
          <mxGeometry y="56" width="160" height="30" as="geometry" />
        </mxCell>
        <mxCell id="pK-a6xWYDuCwZzblca8W-36" value="Outils" style="text;strokeColor=none;fillColor=none;spacingLeft=4;spacingRight=4;overflow=hidden;rotatable=0;points=[[0,0.5],[1,0.5]];portConstraint=eastwest;fontSize=12;whiteSpace=wrap;html=1;" parent="pK-a6xWYDuCwZzblca8W-33" vertex="1">
          <mxGeometry y="86" width="160" height="30" as="geometry" />
        </mxCell>
        <mxCell id="pK-a6xWYDuCwZzblca8W-47" value="Accessoires" style="text;strokeColor=none;fillColor=none;spacingLeft=4;spacingRight=4;overflow=hidden;rotatable=0;points=[[0,0.5],[1,0.5]];portConstraint=eastwest;fontSize=12;whiteSpace=wrap;html=1;" parent="pK-a6xWYDuCwZzblca8W-33" vertex="1">
          <mxGeometry y="116" width="160" height="30" as="geometry" />
        </mxCell>
        <mxCell id="pK-a6xWYDuCwZzblca8W-37" value="" style="endArrow=none;html=1;rounded=0;endFill=0;startArrow=none;startFill=0;strokeWidth=3;entryX=-0.008;entryY=0.063;entryDx=0;entryDy=0;entryPerimeter=0;" parent="1" target="pK-a6xWYDuCwZzblca8W-33" edge="1">
          <mxGeometry width="50" height="50" relative="1" as="geometry">
            <mxPoint x="480" y="1240" as="sourcePoint" />
            <mxPoint x="790" y="1240" as="targetPoint" />
            <Array as="points" />
          </mxGeometry>
        </mxCell>
        <mxCell id="pK-a6xWYDuCwZzblca8W-39" value="1" style="text;strokeColor=none;fillColor=none;align=left;verticalAlign=middle;spacingLeft=4;spacingRight=4;overflow=hidden;points=[[0,0.5],[1,0.5]];portConstraint=eastwest;rotatable=0;whiteSpace=wrap;html=1;" parent="1" vertex="1">
          <mxGeometry x="480" y="1210" width="20" height="30" as="geometry" />
        </mxCell>
        <mxCell id="pK-a6xWYDuCwZzblca8W-41" value="0,n" style="text;strokeColor=none;fillColor=none;align=left;verticalAlign=middle;spacingLeft=4;spacingRight=4;overflow=hidden;points=[[0,0.5],[1,0.5]];portConstraint=eastwest;rotatable=0;whiteSpace=wrap;html=1;" parent="1" vertex="1">
          <mxGeometry x="770" y="1220" width="30" height="20" as="geometry" />
        </mxCell>
        <mxCell id="pK-a6xWYDuCwZzblca8W-43" value="Panier" style="swimlane;fontStyle=0;childLayout=stackLayout;horizontal=1;startSize=26;horizontalStack=0;resizeParent=1;resizeParentMax=0;resizeLast=0;collapsible=1;marginBottom=0;align=center;fontSize=14;" parent="1" vertex="1">
          <mxGeometry x="545" y="1041" width="160" height="86" as="geometry" />
        </mxCell>
        <mxCell id="pK-a6xWYDuCwZzblca8W-44" value="date" style="text;strokeColor=none;fillColor=none;spacingLeft=4;spacingRight=4;overflow=hidden;rotatable=0;points=[[0,0.5],[1,0.5]];portConstraint=eastwest;fontSize=12;whiteSpace=wrap;html=1;" parent="pK-a6xWYDuCwZzblca8W-43" vertex="1">
          <mxGeometry y="26" width="160" height="30" as="geometry" />
        </mxCell>
        <mxCell id="pK-a6xWYDuCwZzblca8W-66" value="prix_total" style="text;strokeColor=none;fillColor=none;spacingLeft=4;spacingRight=4;overflow=hidden;rotatable=0;points=[[0,0.5],[1,0.5]];portConstraint=eastwest;fontSize=12;whiteSpace=wrap;html=1;" parent="pK-a6xWYDuCwZzblca8W-43" vertex="1">
          <mxGeometry y="56" width="160" height="30" as="geometry" />
        </mxCell>
        <mxCell id="pK-a6xWYDuCwZzblca8W-51" value="" style="endArrow=none;html=1;rounded=0;entryX=0;entryY=0.5;entryDx=0;entryDy=0;endFill=0;strokeWidth=3;" parent="1" target="pK-a6xWYDuCwZzblca8W-44" edge="1">
          <mxGeometry width="50" height="50" relative="1" as="geometry">
            <mxPoint x="230" y="1080" as="sourcePoint" />
            <mxPoint x="760" y="1260" as="targetPoint" />
          </mxGeometry>
        </mxCell>
        <mxCell id="pK-a6xWYDuCwZzblca8W-52" value="" style="endArrow=none;html=1;rounded=0;startArrow=block;startFill=1;" parent="1" source="pK-a6xWYDuCwZzblca8W-75" edge="1">
          <mxGeometry width="50" height="50" relative="1" as="geometry">
            <mxPoint x="320" y="1236" as="sourcePoint" />
            <mxPoint x="230" y="1080" as="targetPoint" />
            <Array as="points" />
          </mxGeometry>
        </mxCell>
        <mxCell id="pK-a6xWYDuCwZzblca8W-55" value="Appartenir" style="ellipse;whiteSpace=wrap;html=1;" parent="1" vertex="1">
          <mxGeometry x="570" y="1200" width="120" height="80" as="geometry" />
        </mxCell>
        <mxCell id="pK-a6xWYDuCwZzblca8W-57" value="Client" style="swimlane;fontStyle=0;childLayout=stackLayout;horizontal=1;startSize=26;horizontalStack=0;resizeParent=1;resizeParentMax=0;resizeLast=0;collapsible=1;marginBottom=0;align=center;fontSize=14;" parent="1" vertex="1">
          <mxGeometry x="910" y="860" width="160" height="236" as="geometry" />
        </mxCell>
        <mxCell id="pK-a6xWYDuCwZzblca8W-58" value="ville" style="text;strokeColor=none;fillColor=none;spacingLeft=4;spacingRight=4;overflow=hidden;rotatable=0;points=[[0,0.5],[1,0.5]];portConstraint=eastwest;fontSize=12;whiteSpace=wrap;html=1;" parent="pK-a6xWYDuCwZzblca8W-57" vertex="1">
          <mxGeometry y="26" width="160" height="30" as="geometry" />
        </mxCell>
        <mxCell id="pK-a6xWYDuCwZzblca8W-64" value="zip code" style="text;strokeColor=none;fillColor=none;spacingLeft=4;spacingRight=4;overflow=hidden;rotatable=0;points=[[0,0.5],[1,0.5]];portConstraint=eastwest;fontSize=12;whiteSpace=wrap;html=1;" parent="pK-a6xWYDuCwZzblca8W-57" vertex="1">
          <mxGeometry y="56" width="160" height="30" as="geometry" />
        </mxCell>
        <mxCell id="pK-a6xWYDuCwZzblca8W-65" value="adresse postal" style="text;strokeColor=none;fillColor=none;spacingLeft=4;spacingRight=4;overflow=hidden;rotatable=0;points=[[0,0.5],[1,0.5]];portConstraint=eastwest;fontSize=12;whiteSpace=wrap;html=1;" parent="pK-a6xWYDuCwZzblca8W-57" vertex="1">
          <mxGeometry y="86" width="160" height="30" as="geometry" />
        </mxCell>
        <mxCell id="pK-a6xWYDuCwZzblca8W-63" value="prenom" style="text;strokeColor=none;fillColor=none;spacingLeft=4;spacingRight=4;overflow=hidden;rotatable=0;points=[[0,0.5],[1,0.5]];portConstraint=eastwest;fontSize=12;whiteSpace=wrap;html=1;" parent="pK-a6xWYDuCwZzblca8W-57" vertex="1">
          <mxGeometry y="116" width="160" height="30" as="geometry" />
        </mxCell>
        <mxCell id="pK-a6xWYDuCwZzblca8W-59" value="nom" style="text;strokeColor=none;fillColor=none;spacingLeft=4;spacingRight=4;overflow=hidden;rotatable=0;points=[[0,0.5],[1,0.5]];portConstraint=eastwest;fontSize=12;whiteSpace=wrap;html=1;" parent="pK-a6xWYDuCwZzblca8W-57" vertex="1">
          <mxGeometry y="146" width="160" height="30" as="geometry" />
        </mxCell>
        <mxCell id="pK-a6xWYDuCwZzblca8W-62" value="mail" style="text;strokeColor=none;fillColor=none;spacingLeft=4;spacingRight=4;overflow=hidden;rotatable=0;points=[[0,0.5],[1,0.5]];portConstraint=eastwest;fontSize=12;whiteSpace=wrap;html=1;" parent="pK-a6xWYDuCwZzblca8W-57" vertex="1">
          <mxGeometry y="176" width="160" height="30" as="geometry" />
        </mxCell>
        <mxCell id="pK-a6xWYDuCwZzblca8W-60" value="mot de passe" style="text;strokeColor=none;fillColor=none;spacingLeft=4;spacingRight=4;overflow=hidden;rotatable=0;points=[[0,0.5],[1,0.5]];portConstraint=eastwest;fontSize=12;whiteSpace=wrap;html=1;" parent="pK-a6xWYDuCwZzblca8W-57" vertex="1">
          <mxGeometry y="206" width="160" height="30" as="geometry" />
        </mxCell>
        <mxCell id="pK-a6xWYDuCwZzblca8W-67" value="" style="endArrow=none;html=1;rounded=0;entryX=-0.006;entryY=0.059;entryDx=0;entryDy=0;entryPerimeter=0;endFill=0;strokeWidth=3;" parent="1" edge="1">
          <mxGeometry width="50" height="50" relative="1" as="geometry">
            <mxPoint x="770.96" y="1106" as="sourcePoint" />
            <mxPoint x="910" y="879.924" as="targetPoint" />
            <Array as="points">
              <mxPoint x="770.96" y="880" />
            </Array>
          </mxGeometry>
        </mxCell>
        <mxCell id="pK-a6xWYDuCwZzblca8W-68" value="" style="endArrow=none;html=1;rounded=0;exitX=0.994;exitY=0.103;exitDx=0;exitDy=0;exitPerimeter=0;startArrow=none;startFill=0;strokeWidth=3;" parent="1" edge="1">
          <mxGeometry width="50" height="50" relative="1" as="geometry">
            <mxPoint x="705" y="1106.038" as="sourcePoint" />
            <mxPoint x="770.96" y="1106" as="targetPoint" />
          </mxGeometry>
        </mxCell>
        <mxCell id="pK-a6xWYDuCwZzblca8W-69" value="0,n" style="text;strokeColor=none;fillColor=none;align=left;verticalAlign=middle;spacingLeft=4;spacingRight=4;overflow=hidden;points=[[0,0.5],[1,0.5]];portConstraint=eastwest;rotatable=0;whiteSpace=wrap;html=1;" parent="1" vertex="1">
          <mxGeometry x="290" y="1210" width="30" height="30" as="geometry" />
        </mxCell>
        <mxCell id="pK-a6xWYDuCwZzblca8W-70" value="0,n" style="text;strokeColor=none;fillColor=none;align=left;verticalAlign=middle;spacingLeft=4;spacingRight=4;overflow=hidden;points=[[0,0.5],[1,0.5]];portConstraint=eastwest;rotatable=0;whiteSpace=wrap;html=1;" parent="1" vertex="1">
          <mxGeometry x="490" y="1050" width="40" height="30" as="geometry" />
        </mxCell>
        <mxCell id="pK-a6xWYDuCwZzblca8W-72" value="1" style="text;strokeColor=none;fillColor=none;align=left;verticalAlign=middle;spacingLeft=4;spacingRight=4;overflow=hidden;points=[[0,0.5],[1,0.5]];portConstraint=eastwest;rotatable=0;whiteSpace=wrap;html=1;" parent="1" vertex="1">
          <mxGeometry x="720" y="1076" width="20" height="30" as="geometry" />
        </mxCell>
        <mxCell id="pK-a6xWYDuCwZzblca8W-73" value="0,n" style="text;strokeColor=none;fillColor=none;align=left;verticalAlign=middle;spacingLeft=4;spacingRight=4;overflow=hidden;points=[[0,0.5],[1,0.5]];portConstraint=eastwest;rotatable=0;whiteSpace=wrap;html=1;" parent="1" vertex="1">
          <mxGeometry x="860" y="850" width="30" height="30" as="geometry" />
        </mxCell>
        <mxCell id="pK-a6xWYDuCwZzblca8W-76" value="" style="endArrow=none;html=1;rounded=0;startArrow=none;startFill=0;strokeWidth=3;" parent="1" target="pK-a6xWYDuCwZzblca8W-75" edge="1">
          <mxGeometry width="50" height="50" relative="1" as="geometry">
            <mxPoint x="320" y="1236" as="sourcePoint" />
            <mxPoint x="230" y="1080" as="targetPoint" />
            <Array as="points">
              <mxPoint x="230" y="1236" />
            </Array>
          </mxGeometry>
        </mxCell>
        <mxCell id="pK-a6xWYDuCwZzblca8W-75" value="Etre Disponible" style="ellipse;whiteSpace=wrap;html=1;" parent="1" vertex="1">
          <mxGeometry x="170" y="1041" width="120" height="80" as="geometry" />
        </mxCell>
        <mxCell id="pK-a6xWYDuCwZzblca8W-77" value="Etre Identifier" style="ellipse;whiteSpace=wrap;html=1;" parent="1" vertex="1">
          <mxGeometry x="710" y="840" width="120" height="80" as="geometry" />
        </mxCell>
        <mxCell id="Jo7Nahg0QfTr96RgWeuI-1" value="Reserve" style="swimlane;fontStyle=0;childLayout=stackLayout;horizontal=1;startSize=26;horizontalStack=0;resizeParent=1;resizeParentMax=0;resizeLast=0;collapsible=1;marginBottom=0;align=center;fontSize=14;" vertex="1" parent="1">
          <mxGeometry x="590" y="1430" width="160" height="56" as="geometry" />
        </mxCell>
        <mxCell id="Jo7Nahg0QfTr96RgWeuI-2" value="stock" style="text;strokeColor=none;fillColor=none;spacingLeft=4;spacingRight=4;overflow=hidden;rotatable=0;points=[[0,0.5],[1,0.5]];portConstraint=eastwest;fontSize=12;whiteSpace=wrap;html=1;" vertex="1" parent="Jo7Nahg0QfTr96RgWeuI-1">
          <mxGeometry y="26" width="160" height="30" as="geometry" />
        </mxCell>
        <mxCell id="Jo7Nahg0QfTr96RgWeuI-6" value="Stocker" style="ellipse;whiteSpace=wrap;html=1;" vertex="1" parent="1">
          <mxGeometry x="340" y="1430" width="120" height="80" as="geometry" />
        </mxCell>
        <mxCell id="Jo7Nahg0QfTr96RgWeuI-87" value="" style="childLayout=tableLayout;recursiveResize=0;shadow=0;fillColor=none;" vertex="1" parent="1">
          <mxGeometry x="1160" y="780" width="630" height="110" as="geometry" />
        </mxCell>
        <mxCell id="Jo7Nahg0QfTr96RgWeuI-88" value="" style="shape=tableRow;horizontal=0;startSize=0;swimlaneHead=0;swimlaneBody=0;top=0;left=0;bottom=0;right=0;dropTarget=0;collapsible=0;recursiveResize=0;expand=0;fontStyle=0;fillColor=none;strokeColor=inherit;" vertex="1" parent="Jo7Nahg0QfTr96RgWeuI-87">
          <mxGeometry width="630" height="36" as="geometry" />
        </mxCell>
        <mxCell id="Jo7Nahg0QfTr96RgWeuI-89" value="&lt;font style=&quot;font-size: 16px;&quot;&gt;&lt;b&gt;Champ&lt;/b&gt;&lt;/font&gt;" style="connectable=0;recursiveResize=0;strokeColor=inherit;fillColor=none;align=center;whiteSpace=wrap;html=1;" vertex="1" parent="Jo7Nahg0QfTr96RgWeuI-88">
          <mxGeometry width="210" height="36" as="geometry">
            <mxRectangle width="210" height="36" as="alternateBounds" />
          </mxGeometry>
        </mxCell>
        <mxCell id="Jo7Nahg0QfTr96RgWeuI-90" value="&lt;font size=&quot;1&quot; style=&quot;&quot;&gt;&lt;b style=&quot;font-size: 16px;&quot;&gt;Type&lt;/b&gt;&lt;/font&gt;" style="connectable=0;recursiveResize=0;strokeColor=inherit;fillColor=none;align=center;whiteSpace=wrap;html=1;" vertex="1" parent="Jo7Nahg0QfTr96RgWeuI-88">
          <mxGeometry x="210" width="210" height="36" as="geometry">
            <mxRectangle width="210" height="36" as="alternateBounds" />
          </mxGeometry>
        </mxCell>
        <mxCell id="Jo7Nahg0QfTr96RgWeuI-91" value="&lt;b&gt;&lt;font style=&quot;font-size: 16px;&quot;&gt;Spécificités&lt;/font&gt;&lt;/b&gt;" style="connectable=0;recursiveResize=0;strokeColor=inherit;fillColor=none;align=center;whiteSpace=wrap;html=1;" vertex="1" parent="Jo7Nahg0QfTr96RgWeuI-88">
          <mxGeometry x="420" width="210" height="36" as="geometry">
            <mxRectangle width="210" height="36" as="alternateBounds" />
          </mxGeometry>
        </mxCell>
        <mxCell id="Jo7Nahg0QfTr96RgWeuI-92" style="shape=tableRow;horizontal=0;startSize=0;swimlaneHead=0;swimlaneBody=0;top=0;left=0;bottom=0;right=0;dropTarget=0;collapsible=0;recursiveResize=0;expand=0;fontStyle=0;fillColor=none;strokeColor=inherit;" vertex="1" parent="Jo7Nahg0QfTr96RgWeuI-87">
          <mxGeometry y="36" width="630" height="38" as="geometry" />
        </mxCell>
        <mxCell id="Jo7Nahg0QfTr96RgWeuI-93" value="nom" style="connectable=0;recursiveResize=0;strokeColor=inherit;fillColor=none;align=center;whiteSpace=wrap;html=1;" vertex="1" parent="Jo7Nahg0QfTr96RgWeuI-92">
          <mxGeometry width="210" height="38" as="geometry">
            <mxRectangle width="210" height="38" as="alternateBounds" />
          </mxGeometry>
        </mxCell>
        <mxCell id="Jo7Nahg0QfTr96RgWeuI-94" value="string" style="connectable=0;recursiveResize=0;strokeColor=inherit;fillColor=none;align=center;whiteSpace=wrap;html=1;" vertex="1" parent="Jo7Nahg0QfTr96RgWeuI-92">
          <mxGeometry x="210" width="210" height="38" as="geometry">
            <mxRectangle width="210" height="38" as="alternateBounds" />
          </mxGeometry>
        </mxCell>
        <mxCell id="Jo7Nahg0QfTr96RgWeuI-95" value="NOT_NULL" style="connectable=0;recursiveResize=0;strokeColor=inherit;fillColor=none;align=center;whiteSpace=wrap;html=1;" vertex="1" parent="Jo7Nahg0QfTr96RgWeuI-92">
          <mxGeometry x="420" width="210" height="38" as="geometry">
            <mxRectangle width="210" height="38" as="alternateBounds" />
          </mxGeometry>
        </mxCell>
        <mxCell id="Jo7Nahg0QfTr96RgWeuI-96" style="shape=tableRow;horizontal=0;startSize=0;swimlaneHead=0;swimlaneBody=0;top=0;left=0;bottom=0;right=0;dropTarget=0;collapsible=0;recursiveResize=0;expand=0;fontStyle=0;fillColor=none;strokeColor=inherit;" vertex="1" parent="Jo7Nahg0QfTr96RgWeuI-87">
          <mxGeometry y="74" width="630" height="36" as="geometry" />
        </mxCell>
        <mxCell id="Jo7Nahg0QfTr96RgWeuI-97" value="prenom" style="connectable=0;recursiveResize=0;strokeColor=inherit;fillColor=none;align=center;whiteSpace=wrap;html=1;" vertex="1" parent="Jo7Nahg0QfTr96RgWeuI-96">
          <mxGeometry width="210" height="36" as="geometry">
            <mxRectangle width="210" height="36" as="alternateBounds" />
          </mxGeometry>
        </mxCell>
        <mxCell id="Jo7Nahg0QfTr96RgWeuI-98" value="string" style="connectable=0;recursiveResize=0;strokeColor=inherit;fillColor=none;align=center;whiteSpace=wrap;html=1;" vertex="1" parent="Jo7Nahg0QfTr96RgWeuI-96">
          <mxGeometry x="210" width="210" height="36" as="geometry">
            <mxRectangle width="210" height="36" as="alternateBounds" />
          </mxGeometry>
        </mxCell>
        <mxCell id="Jo7Nahg0QfTr96RgWeuI-99" value="NOT_NULL" style="connectable=0;recursiveResize=0;strokeColor=inherit;fillColor=none;align=center;whiteSpace=wrap;html=1;" vertex="1" parent="Jo7Nahg0QfTr96RgWeuI-96">
          <mxGeometry x="420" width="210" height="36" as="geometry">
            <mxRectangle width="210" height="36" as="alternateBounds" />
          </mxGeometry>
        </mxCell>
        <mxCell id="Jo7Nahg0QfTr96RgWeuI-100" value="0,n" style="text;strokeColor=none;fillColor=none;align=left;verticalAlign=middle;spacingLeft=4;spacingRight=4;overflow=hidden;points=[[0,0.5],[1,0.5]];portConstraint=eastwest;rotatable=0;whiteSpace=wrap;html=1;" vertex="1" parent="1">
          <mxGeometry x="400" y="1370" width="30" height="30" as="geometry" />
        </mxCell>
        <mxCell id="Jo7Nahg0QfTr96RgWeuI-101" value="0,n" style="text;strokeColor=none;fillColor=none;align=left;verticalAlign=middle;spacingLeft=4;spacingRight=4;overflow=hidden;points=[[0,0.5],[1,0.5]];portConstraint=eastwest;rotatable=0;whiteSpace=wrap;html=1;" vertex="1" parent="1">
          <mxGeometry x="555" y="1440" width="35" height="30" as="geometry" />
        </mxCell>
        <mxCell id="Jo7Nahg0QfTr96RgWeuI-102" value="" style="childLayout=tableLayout;recursiveResize=0;shadow=0;fillColor=none;" vertex="1" parent="1">
          <mxGeometry x="1160" y="890" width="630" height="110" as="geometry" />
        </mxCell>
        <mxCell id="Jo7Nahg0QfTr96RgWeuI-103" value="" style="shape=tableRow;horizontal=0;startSize=0;swimlaneHead=0;swimlaneBody=0;top=0;left=0;bottom=0;right=0;dropTarget=0;collapsible=0;recursiveResize=0;expand=0;fontStyle=0;fillColor=none;strokeColor=inherit;" vertex="1" parent="Jo7Nahg0QfTr96RgWeuI-102">
          <mxGeometry width="630" height="36" as="geometry" />
        </mxCell>
        <mxCell id="Jo7Nahg0QfTr96RgWeuI-104" value="zip_code" style="connectable=0;recursiveResize=0;strokeColor=inherit;fillColor=none;align=center;whiteSpace=wrap;html=1;" vertex="1" parent="Jo7Nahg0QfTr96RgWeuI-103">
          <mxGeometry width="210" height="36" as="geometry">
            <mxRectangle width="210" height="36" as="alternateBounds" />
          </mxGeometry>
        </mxCell>
        <mxCell id="Jo7Nahg0QfTr96RgWeuI-105" value="int" style="connectable=0;recursiveResize=0;strokeColor=inherit;fillColor=none;align=center;whiteSpace=wrap;html=1;" vertex="1" parent="Jo7Nahg0QfTr96RgWeuI-103">
          <mxGeometry x="210" width="210" height="36" as="geometry">
            <mxRectangle width="210" height="36" as="alternateBounds" />
          </mxGeometry>
        </mxCell>
        <mxCell id="Jo7Nahg0QfTr96RgWeuI-106" value="NOT_NULL" style="connectable=0;recursiveResize=0;strokeColor=inherit;fillColor=none;align=center;whiteSpace=wrap;html=1;" vertex="1" parent="Jo7Nahg0QfTr96RgWeuI-103">
          <mxGeometry x="420" width="210" height="36" as="geometry">
            <mxRectangle width="210" height="36" as="alternateBounds" />
          </mxGeometry>
        </mxCell>
        <mxCell id="Jo7Nahg0QfTr96RgWeuI-107" style="shape=tableRow;horizontal=0;startSize=0;swimlaneHead=0;swimlaneBody=0;top=0;left=0;bottom=0;right=0;dropTarget=0;collapsible=0;recursiveResize=0;expand=0;fontStyle=0;fillColor=none;strokeColor=inherit;" vertex="1" parent="Jo7Nahg0QfTr96RgWeuI-102">
          <mxGeometry y="36" width="630" height="38" as="geometry" />
        </mxCell>
        <mxCell id="Jo7Nahg0QfTr96RgWeuI-108" value="adresse" style="connectable=0;recursiveResize=0;strokeColor=inherit;fillColor=none;align=center;whiteSpace=wrap;html=1;" vertex="1" parent="Jo7Nahg0QfTr96RgWeuI-107">
          <mxGeometry width="210" height="38" as="geometry">
            <mxRectangle width="210" height="38" as="alternateBounds" />
          </mxGeometry>
        </mxCell>
        <mxCell id="Jo7Nahg0QfTr96RgWeuI-109" value="varchar" style="connectable=0;recursiveResize=0;strokeColor=inherit;fillColor=none;align=center;whiteSpace=wrap;html=1;" vertex="1" parent="Jo7Nahg0QfTr96RgWeuI-107">
          <mxGeometry x="210" width="210" height="38" as="geometry">
            <mxRectangle width="210" height="38" as="alternateBounds" />
          </mxGeometry>
        </mxCell>
        <mxCell id="Jo7Nahg0QfTr96RgWeuI-110" value="NOT_NULL" style="connectable=0;recursiveResize=0;strokeColor=inherit;fillColor=none;align=center;whiteSpace=wrap;html=1;" vertex="1" parent="Jo7Nahg0QfTr96RgWeuI-107">
          <mxGeometry x="420" width="210" height="38" as="geometry">
            <mxRectangle width="210" height="38" as="alternateBounds" />
          </mxGeometry>
        </mxCell>
        <mxCell id="Jo7Nahg0QfTr96RgWeuI-111" style="shape=tableRow;horizontal=0;startSize=0;swimlaneHead=0;swimlaneBody=0;top=0;left=0;bottom=0;right=0;dropTarget=0;collapsible=0;recursiveResize=0;expand=0;fontStyle=0;fillColor=none;strokeColor=inherit;" vertex="1" parent="Jo7Nahg0QfTr96RgWeuI-102">
          <mxGeometry y="74" width="630" height="36" as="geometry" />
        </mxCell>
        <mxCell id="Jo7Nahg0QfTr96RgWeuI-112" value="stock" style="connectable=0;recursiveResize=0;strokeColor=inherit;fillColor=none;align=center;whiteSpace=wrap;html=1;" vertex="1" parent="Jo7Nahg0QfTr96RgWeuI-111">
          <mxGeometry width="210" height="36" as="geometry">
            <mxRectangle width="210" height="36" as="alternateBounds" />
          </mxGeometry>
        </mxCell>
        <mxCell id="Jo7Nahg0QfTr96RgWeuI-113" value="int" style="connectable=0;recursiveResize=0;strokeColor=inherit;fillColor=none;align=center;whiteSpace=wrap;html=1;" vertex="1" parent="Jo7Nahg0QfTr96RgWeuI-111">
          <mxGeometry x="210" width="210" height="36" as="geometry">
            <mxRectangle width="210" height="36" as="alternateBounds" />
          </mxGeometry>
        </mxCell>
        <mxCell id="Jo7Nahg0QfTr96RgWeuI-114" value="NOT_NULL" style="connectable=0;recursiveResize=0;strokeColor=inherit;fillColor=none;align=center;whiteSpace=wrap;html=1;" vertex="1" parent="Jo7Nahg0QfTr96RgWeuI-111">
          <mxGeometry x="420" width="210" height="36" as="geometry">
            <mxRectangle width="210" height="36" as="alternateBounds" />
          </mxGeometry>
        </mxCell>
        <mxCell id="Jo7Nahg0QfTr96RgWeuI-116" value="&lt;font size=&quot;1&quot; style=&quot;&quot;&gt;&lt;b style=&quot;font-size: 20px;&quot;&gt;Dictionnaire de données&lt;/b&gt;&lt;/font&gt;" style="rounded=0;whiteSpace=wrap;html=1;" vertex="1" parent="1">
          <mxGeometry x="1160" y="730" width="630" height="50" as="geometry" />
        </mxCell>
        <mxCell id="Jo7Nahg0QfTr96RgWeuI-117" value="" style="childLayout=tableLayout;recursiveResize=0;shadow=0;fillColor=none;" vertex="1" parent="1">
          <mxGeometry x="1160" y="1000" width="630" height="110" as="geometry" />
        </mxCell>
        <mxCell id="Jo7Nahg0QfTr96RgWeuI-118" value="" style="shape=tableRow;horizontal=0;startSize=0;swimlaneHead=0;swimlaneBody=0;top=0;left=0;bottom=0;right=0;dropTarget=0;collapsible=0;recursiveResize=0;expand=0;fontStyle=0;fillColor=none;strokeColor=inherit;" vertex="1" parent="Jo7Nahg0QfTr96RgWeuI-117">
          <mxGeometry width="630" height="36" as="geometry" />
        </mxCell>
        <mxCell id="Jo7Nahg0QfTr96RgWeuI-119" value="mail" style="connectable=0;recursiveResize=0;strokeColor=inherit;fillColor=none;align=center;whiteSpace=wrap;html=1;" vertex="1" parent="Jo7Nahg0QfTr96RgWeuI-118">
          <mxGeometry width="210" height="36" as="geometry">
            <mxRectangle width="210" height="36" as="alternateBounds" />
          </mxGeometry>
        </mxCell>
        <mxCell id="Jo7Nahg0QfTr96RgWeuI-120" value="varchar" style="connectable=0;recursiveResize=0;strokeColor=inherit;fillColor=none;align=center;whiteSpace=wrap;html=1;" vertex="1" parent="Jo7Nahg0QfTr96RgWeuI-118">
          <mxGeometry x="210" width="210" height="36" as="geometry">
            <mxRectangle width="210" height="36" as="alternateBounds" />
          </mxGeometry>
        </mxCell>
        <mxCell id="Jo7Nahg0QfTr96RgWeuI-121" value="NOT_NULL" style="connectable=0;recursiveResize=0;strokeColor=inherit;fillColor=none;align=center;whiteSpace=wrap;html=1;" vertex="1" parent="Jo7Nahg0QfTr96RgWeuI-118">
          <mxGeometry x="420" width="210" height="36" as="geometry">
            <mxRectangle width="210" height="36" as="alternateBounds" />
          </mxGeometry>
        </mxCell>
        <mxCell id="Jo7Nahg0QfTr96RgWeuI-122" style="shape=tableRow;horizontal=0;startSize=0;swimlaneHead=0;swimlaneBody=0;top=0;left=0;bottom=0;right=0;dropTarget=0;collapsible=0;recursiveResize=0;expand=0;fontStyle=0;fillColor=none;strokeColor=inherit;" vertex="1" parent="Jo7Nahg0QfTr96RgWeuI-117">
          <mxGeometry y="36" width="630" height="38" as="geometry" />
        </mxCell>
        <mxCell id="Jo7Nahg0QfTr96RgWeuI-123" value="mot de passe" style="connectable=0;recursiveResize=0;strokeColor=inherit;fillColor=none;align=center;whiteSpace=wrap;html=1;" vertex="1" parent="Jo7Nahg0QfTr96RgWeuI-122">
          <mxGeometry width="210" height="38" as="geometry">
            <mxRectangle width="210" height="38" as="alternateBounds" />
          </mxGeometry>
        </mxCell>
        <mxCell id="Jo7Nahg0QfTr96RgWeuI-124" value="varchar" style="connectable=0;recursiveResize=0;strokeColor=inherit;fillColor=none;align=center;whiteSpace=wrap;html=1;" vertex="1" parent="Jo7Nahg0QfTr96RgWeuI-122">
          <mxGeometry x="210" width="210" height="38" as="geometry">
            <mxRectangle width="210" height="38" as="alternateBounds" />
          </mxGeometry>
        </mxCell>
        <mxCell id="Jo7Nahg0QfTr96RgWeuI-125" value="NOT_NULL" style="connectable=0;recursiveResize=0;strokeColor=inherit;fillColor=none;align=center;whiteSpace=wrap;html=1;" vertex="1" parent="Jo7Nahg0QfTr96RgWeuI-122">
          <mxGeometry x="420" width="210" height="38" as="geometry">
            <mxRectangle width="210" height="38" as="alternateBounds" />
          </mxGeometry>
        </mxCell>
        <mxCell id="Jo7Nahg0QfTr96RgWeuI-126" style="shape=tableRow;horizontal=0;startSize=0;swimlaneHead=0;swimlaneBody=0;top=0;left=0;bottom=0;right=0;dropTarget=0;collapsible=0;recursiveResize=0;expand=0;fontStyle=0;fillColor=none;strokeColor=inherit;" vertex="1" parent="Jo7Nahg0QfTr96RgWeuI-117">
          <mxGeometry y="74" width="630" height="36" as="geometry" />
        </mxCell>
        <mxCell id="Jo7Nahg0QfTr96RgWeuI-127" value="pantalon" style="connectable=0;recursiveResize=0;strokeColor=inherit;fillColor=none;align=center;whiteSpace=wrap;html=1;" vertex="1" parent="Jo7Nahg0QfTr96RgWeuI-126">
          <mxGeometry width="210" height="36" as="geometry">
            <mxRectangle width="210" height="36" as="alternateBounds" />
          </mxGeometry>
        </mxCell>
        <mxCell id="Jo7Nahg0QfTr96RgWeuI-128" value="varchar" style="connectable=0;recursiveResize=0;strokeColor=inherit;fillColor=none;align=center;whiteSpace=wrap;html=1;" vertex="1" parent="Jo7Nahg0QfTr96RgWeuI-126">
          <mxGeometry x="210" width="210" height="36" as="geometry">
            <mxRectangle width="210" height="36" as="alternateBounds" />
          </mxGeometry>
        </mxCell>
        <mxCell id="Jo7Nahg0QfTr96RgWeuI-129" value="NOT_NULL" style="connectable=0;recursiveResize=0;strokeColor=inherit;fillColor=none;align=center;whiteSpace=wrap;html=1;" vertex="1" parent="Jo7Nahg0QfTr96RgWeuI-126">
          <mxGeometry x="420" width="210" height="36" as="geometry">
            <mxRectangle width="210" height="36" as="alternateBounds" />
          </mxGeometry>
        </mxCell>
        <mxCell id="Jo7Nahg0QfTr96RgWeuI-148" value="" style="childLayout=tableLayout;recursiveResize=0;shadow=0;fillColor=none;" vertex="1" parent="1">
          <mxGeometry x="1160" y="1110" width="630" height="110" as="geometry" />
        </mxCell>
        <mxCell id="Jo7Nahg0QfTr96RgWeuI-149" value="" style="shape=tableRow;horizontal=0;startSize=0;swimlaneHead=0;swimlaneBody=0;top=0;left=0;bottom=0;right=0;dropTarget=0;collapsible=0;recursiveResize=0;expand=0;fontStyle=0;fillColor=none;strokeColor=inherit;" vertex="1" parent="Jo7Nahg0QfTr96RgWeuI-148">
          <mxGeometry width="630" height="36" as="geometry" />
        </mxCell>
        <mxCell id="Jo7Nahg0QfTr96RgWeuI-150" value="outils" style="connectable=0;recursiveResize=0;strokeColor=inherit;fillColor=none;align=center;whiteSpace=wrap;html=1;" vertex="1" parent="Jo7Nahg0QfTr96RgWeuI-149">
          <mxGeometry width="210" height="36" as="geometry">
            <mxRectangle width="210" height="36" as="alternateBounds" />
          </mxGeometry>
        </mxCell>
        <mxCell id="Jo7Nahg0QfTr96RgWeuI-151" value="varchar" style="connectable=0;recursiveResize=0;strokeColor=inherit;fillColor=none;align=center;whiteSpace=wrap;html=1;" vertex="1" parent="Jo7Nahg0QfTr96RgWeuI-149">
          <mxGeometry x="210" width="210" height="36" as="geometry">
            <mxRectangle width="210" height="36" as="alternateBounds" />
          </mxGeometry>
        </mxCell>
        <mxCell id="Jo7Nahg0QfTr96RgWeuI-152" value="NOT_NULL" style="connectable=0;recursiveResize=0;strokeColor=inherit;fillColor=none;align=center;whiteSpace=wrap;html=1;" vertex="1" parent="Jo7Nahg0QfTr96RgWeuI-149">
          <mxGeometry x="420" width="210" height="36" as="geometry">
            <mxRectangle width="210" height="36" as="alternateBounds" />
          </mxGeometry>
        </mxCell>
        <mxCell id="Jo7Nahg0QfTr96RgWeuI-153" style="shape=tableRow;horizontal=0;startSize=0;swimlaneHead=0;swimlaneBody=0;top=0;left=0;bottom=0;right=0;dropTarget=0;collapsible=0;recursiveResize=0;expand=0;fontStyle=0;fillColor=none;strokeColor=inherit;" vertex="1" parent="Jo7Nahg0QfTr96RgWeuI-148">
          <mxGeometry y="36" width="630" height="38" as="geometry" />
        </mxCell>
        <mxCell id="Jo7Nahg0QfTr96RgWeuI-154" value="accessoires" style="connectable=0;recursiveResize=0;strokeColor=inherit;fillColor=none;align=center;whiteSpace=wrap;html=1;" vertex="1" parent="Jo7Nahg0QfTr96RgWeuI-153">
          <mxGeometry width="210" height="38" as="geometry">
            <mxRectangle width="210" height="38" as="alternateBounds" />
          </mxGeometry>
        </mxCell>
        <mxCell id="Jo7Nahg0QfTr96RgWeuI-155" value="varchar" style="connectable=0;recursiveResize=0;strokeColor=inherit;fillColor=none;align=center;whiteSpace=wrap;html=1;" vertex="1" parent="Jo7Nahg0QfTr96RgWeuI-153">
          <mxGeometry x="210" width="210" height="38" as="geometry">
            <mxRectangle width="210" height="38" as="alternateBounds" />
          </mxGeometry>
        </mxCell>
        <mxCell id="Jo7Nahg0QfTr96RgWeuI-156" value="NOT_NULL" style="connectable=0;recursiveResize=0;strokeColor=inherit;fillColor=none;align=center;whiteSpace=wrap;html=1;" vertex="1" parent="Jo7Nahg0QfTr96RgWeuI-153">
          <mxGeometry x="420" width="210" height="38" as="geometry">
            <mxRectangle width="210" height="38" as="alternateBounds" />
          </mxGeometry>
        </mxCell>
        <mxCell id="Jo7Nahg0QfTr96RgWeuI-157" style="shape=tableRow;horizontal=0;startSize=0;swimlaneHead=0;swimlaneBody=0;top=0;left=0;bottom=0;right=0;dropTarget=0;collapsible=0;recursiveResize=0;expand=0;fontStyle=0;fillColor=none;strokeColor=inherit;" vertex="1" parent="Jo7Nahg0QfTr96RgWeuI-148">
          <mxGeometry y="74" width="630" height="36" as="geometry" />
        </mxCell>
        <mxCell id="Jo7Nahg0QfTr96RgWeuI-158" value="chaussure" style="connectable=0;recursiveResize=0;strokeColor=inherit;fillColor=none;align=center;whiteSpace=wrap;html=1;" vertex="1" parent="Jo7Nahg0QfTr96RgWeuI-157">
          <mxGeometry width="210" height="36" as="geometry">
            <mxRectangle width="210" height="36" as="alternateBounds" />
          </mxGeometry>
        </mxCell>
        <mxCell id="Jo7Nahg0QfTr96RgWeuI-159" value="varchar" style="connectable=0;recursiveResize=0;strokeColor=inherit;fillColor=none;align=center;whiteSpace=wrap;html=1;" vertex="1" parent="Jo7Nahg0QfTr96RgWeuI-157">
          <mxGeometry x="210" width="210" height="36" as="geometry">
            <mxRectangle width="210" height="36" as="alternateBounds" />
          </mxGeometry>
        </mxCell>
        <mxCell id="Jo7Nahg0QfTr96RgWeuI-160" value="NOT_NULL" style="connectable=0;recursiveResize=0;strokeColor=inherit;fillColor=none;align=center;whiteSpace=wrap;html=1;" vertex="1" parent="Jo7Nahg0QfTr96RgWeuI-157">
          <mxGeometry x="420" width="210" height="36" as="geometry">
            <mxRectangle width="210" height="36" as="alternateBounds" />
          </mxGeometry>
        </mxCell>
        <mxCell id="Jo7Nahg0QfTr96RgWeuI-164" value="" style="endArrow=none;html=1;rounded=0;entryX=1;entryY=0.5;entryDx=0;entryDy=0;exitX=0;exitY=0.5;exitDx=0;exitDy=0;strokeWidth=3;" edge="1" parent="1" source="Jo7Nahg0QfTr96RgWeuI-2" target="Jo7Nahg0QfTr96RgWeuI-6">
          <mxGeometry width="50" height="50" relative="1" as="geometry">
            <mxPoint x="500" y="1320" as="sourcePoint" />
            <mxPoint x="550" y="1270" as="targetPoint" />
          </mxGeometry>
        </mxCell>
        <mxCell id="Jo7Nahg0QfTr96RgWeuI-166" value="" style="endArrow=none;html=1;rounded=0;entryX=0.502;entryY=1.019;entryDx=0;entryDy=0;entryPerimeter=0;exitX=0.5;exitY=0;exitDx=0;exitDy=0;strokeWidth=3;" edge="1" parent="1">
          <mxGeometry width="50" height="50" relative="1" as="geometry">
            <mxPoint x="399.40999999999997" y="1426.43" as="sourcePoint" />
            <mxPoint x="399.7299999999997" y="1370.0000000000002" as="targetPoint" />
          </mxGeometry>
        </mxCell>
        <mxCell id="Jo7Nahg0QfTr96RgWeuI-167" value="" style="childLayout=tableLayout;recursiveResize=0;shadow=0;fillColor=none;" vertex="1" parent="1">
          <mxGeometry x="1160" y="1220" width="630" height="110" as="geometry" />
        </mxCell>
        <mxCell id="Jo7Nahg0QfTr96RgWeuI-168" value="" style="shape=tableRow;horizontal=0;startSize=0;swimlaneHead=0;swimlaneBody=0;top=0;left=0;bottom=0;right=0;dropTarget=0;collapsible=0;recursiveResize=0;expand=0;fontStyle=0;fillColor=none;strokeColor=inherit;" vertex="1" parent="Jo7Nahg0QfTr96RgWeuI-167">
          <mxGeometry width="630" height="36" as="geometry" />
        </mxCell>
        <mxCell id="Jo7Nahg0QfTr96RgWeuI-169" value="is_active" style="connectable=0;recursiveResize=0;strokeColor=inherit;fillColor=none;align=center;whiteSpace=wrap;html=1;" vertex="1" parent="Jo7Nahg0QfTr96RgWeuI-168">
          <mxGeometry width="210" height="36" as="geometry">
            <mxRectangle width="210" height="36" as="alternateBounds" />
          </mxGeometry>
        </mxCell>
        <mxCell id="Jo7Nahg0QfTr96RgWeuI-170" value="bool" style="connectable=0;recursiveResize=0;strokeColor=inherit;fillColor=none;align=center;whiteSpace=wrap;html=1;" vertex="1" parent="Jo7Nahg0QfTr96RgWeuI-168">
          <mxGeometry x="210" width="210" height="36" as="geometry">
            <mxRectangle width="210" height="36" as="alternateBounds" />
          </mxGeometry>
        </mxCell>
        <mxCell id="Jo7Nahg0QfTr96RgWeuI-171" value="NOT_NULL" style="connectable=0;recursiveResize=0;strokeColor=inherit;fillColor=none;align=center;whiteSpace=wrap;html=1;" vertex="1" parent="Jo7Nahg0QfTr96RgWeuI-168">
          <mxGeometry x="420" width="210" height="36" as="geometry">
            <mxRectangle width="210" height="36" as="alternateBounds" />
          </mxGeometry>
        </mxCell>
        <mxCell id="Jo7Nahg0QfTr96RgWeuI-172" style="shape=tableRow;horizontal=0;startSize=0;swimlaneHead=0;swimlaneBody=0;top=0;left=0;bottom=0;right=0;dropTarget=0;collapsible=0;recursiveResize=0;expand=0;fontStyle=0;fillColor=none;strokeColor=inherit;" vertex="1" parent="Jo7Nahg0QfTr96RgWeuI-167">
          <mxGeometry y="36" width="630" height="38" as="geometry" />
        </mxCell>
        <mxCell id="Jo7Nahg0QfTr96RgWeuI-173" value="label" style="connectable=0;recursiveResize=0;strokeColor=inherit;fillColor=none;align=center;whiteSpace=wrap;html=1;" vertex="1" parent="Jo7Nahg0QfTr96RgWeuI-172">
          <mxGeometry width="210" height="38" as="geometry">
            <mxRectangle width="210" height="38" as="alternateBounds" />
          </mxGeometry>
        </mxCell>
        <mxCell id="Jo7Nahg0QfTr96RgWeuI-174" value="int" style="connectable=0;recursiveResize=0;strokeColor=inherit;fillColor=none;align=center;whiteSpace=wrap;html=1;" vertex="1" parent="Jo7Nahg0QfTr96RgWeuI-172">
          <mxGeometry x="210" width="210" height="38" as="geometry">
            <mxRectangle width="210" height="38" as="alternateBounds" />
          </mxGeometry>
        </mxCell>
        <mxCell id="Jo7Nahg0QfTr96RgWeuI-175" value="NOT_NULL" style="connectable=0;recursiveResize=0;strokeColor=inherit;fillColor=none;align=center;whiteSpace=wrap;html=1;" vertex="1" parent="Jo7Nahg0QfTr96RgWeuI-172">
          <mxGeometry x="420" width="210" height="38" as="geometry">
            <mxRectangle width="210" height="38" as="alternateBounds" />
          </mxGeometry>
        </mxCell>
        <mxCell id="Jo7Nahg0QfTr96RgWeuI-176" style="shape=tableRow;horizontal=0;startSize=0;swimlaneHead=0;swimlaneBody=0;top=0;left=0;bottom=0;right=0;dropTarget=0;collapsible=0;recursiveResize=0;expand=0;fontStyle=0;fillColor=none;strokeColor=inherit;" vertex="1" parent="Jo7Nahg0QfTr96RgWeuI-167">
          <mxGeometry y="74" width="630" height="36" as="geometry" />
        </mxCell>
        <mxCell id="Jo7Nahg0QfTr96RgWeuI-177" value="chaussure" style="connectable=0;recursiveResize=0;strokeColor=inherit;fillColor=none;align=center;whiteSpace=wrap;html=1;" vertex="1" parent="Jo7Nahg0QfTr96RgWeuI-176">
          <mxGeometry width="210" height="36" as="geometry">
            <mxRectangle width="210" height="36" as="alternateBounds" />
          </mxGeometry>
        </mxCell>
        <mxCell id="Jo7Nahg0QfTr96RgWeuI-178" value="varchar" style="connectable=0;recursiveResize=0;strokeColor=inherit;fillColor=none;align=center;whiteSpace=wrap;html=1;" vertex="1" parent="Jo7Nahg0QfTr96RgWeuI-176">
          <mxGeometry x="210" width="210" height="36" as="geometry">
            <mxRectangle width="210" height="36" as="alternateBounds" />
          </mxGeometry>
        </mxCell>
        <mxCell id="Jo7Nahg0QfTr96RgWeuI-179" value="NOT_NULL" style="connectable=0;recursiveResize=0;strokeColor=inherit;fillColor=none;align=center;whiteSpace=wrap;html=1;" vertex="1" parent="Jo7Nahg0QfTr96RgWeuI-176">
          <mxGeometry x="420" width="210" height="36" as="geometry">
            <mxRectangle width="210" height="36" as="alternateBounds" />
          </mxGeometry>
        </mxCell>
        <mxCell id="Jo7Nahg0QfTr96RgWeuI-180" value="" style="childLayout=tableLayout;recursiveResize=0;shadow=0;fillColor=none;" vertex="1" parent="1">
          <mxGeometry x="1160" y="1330" width="630" height="110" as="geometry" />
        </mxCell>
        <mxCell id="Jo7Nahg0QfTr96RgWeuI-181" value="" style="shape=tableRow;horizontal=0;startSize=0;swimlaneHead=0;swimlaneBody=0;top=0;left=0;bottom=0;right=0;dropTarget=0;collapsible=0;recursiveResize=0;expand=0;fontStyle=0;fillColor=none;strokeColor=inherit;" vertex="1" parent="Jo7Nahg0QfTr96RgWeuI-180">
          <mxGeometry width="630" height="36" as="geometry" />
        </mxCell>
        <mxCell id="Jo7Nahg0QfTr96RgWeuI-182" value="ville" style="connectable=0;recursiveResize=0;strokeColor=inherit;fillColor=none;align=center;whiteSpace=wrap;html=1;" vertex="1" parent="Jo7Nahg0QfTr96RgWeuI-181">
          <mxGeometry width="210" height="36" as="geometry">
            <mxRectangle width="210" height="36" as="alternateBounds" />
          </mxGeometry>
        </mxCell>
        <mxCell id="Jo7Nahg0QfTr96RgWeuI-183" value="string" style="connectable=0;recursiveResize=0;strokeColor=inherit;fillColor=none;align=center;whiteSpace=wrap;html=1;" vertex="1" parent="Jo7Nahg0QfTr96RgWeuI-181">
          <mxGeometry x="210" width="210" height="36" as="geometry">
            <mxRectangle width="210" height="36" as="alternateBounds" />
          </mxGeometry>
        </mxCell>
        <mxCell id="Jo7Nahg0QfTr96RgWeuI-184" value="NOT_NULL" style="connectable=0;recursiveResize=0;strokeColor=inherit;fillColor=none;align=center;whiteSpace=wrap;html=1;" vertex="1" parent="Jo7Nahg0QfTr96RgWeuI-181">
          <mxGeometry x="420" width="210" height="36" as="geometry">
            <mxRectangle width="210" height="36" as="alternateBounds" />
          </mxGeometry>
        </mxCell>
        <mxCell id="Jo7Nahg0QfTr96RgWeuI-185" style="shape=tableRow;horizontal=0;startSize=0;swimlaneHead=0;swimlaneBody=0;top=0;left=0;bottom=0;right=0;dropTarget=0;collapsible=0;recursiveResize=0;expand=0;fontStyle=0;fillColor=none;strokeColor=inherit;" vertex="1" parent="Jo7Nahg0QfTr96RgWeuI-180">
          <mxGeometry y="36" width="630" height="38" as="geometry" />
        </mxCell>
        <mxCell id="Jo7Nahg0QfTr96RgWeuI-186" value="description" style="connectable=0;recursiveResize=0;strokeColor=inherit;fillColor=none;align=center;whiteSpace=wrap;html=1;" vertex="1" parent="Jo7Nahg0QfTr96RgWeuI-185">
          <mxGeometry width="210" height="38" as="geometry">
            <mxRectangle width="210" height="38" as="alternateBounds" />
          </mxGeometry>
        </mxCell>
        <mxCell id="Jo7Nahg0QfTr96RgWeuI-187" value="int" style="connectable=0;recursiveResize=0;strokeColor=inherit;fillColor=none;align=center;whiteSpace=wrap;html=1;" vertex="1" parent="Jo7Nahg0QfTr96RgWeuI-185">
          <mxGeometry x="210" width="210" height="38" as="geometry">
            <mxRectangle width="210" height="38" as="alternateBounds" />
          </mxGeometry>
        </mxCell>
        <mxCell id="Jo7Nahg0QfTr96RgWeuI-188" value="NOT_NULL" style="connectable=0;recursiveResize=0;strokeColor=inherit;fillColor=none;align=center;whiteSpace=wrap;html=1;" vertex="1" parent="Jo7Nahg0QfTr96RgWeuI-185">
          <mxGeometry x="420" width="210" height="38" as="geometry">
            <mxRectangle width="210" height="38" as="alternateBounds" />
          </mxGeometry>
        </mxCell>
        <mxCell id="Jo7Nahg0QfTr96RgWeuI-189" style="shape=tableRow;horizontal=0;startSize=0;swimlaneHead=0;swimlaneBody=0;top=0;left=0;bottom=0;right=0;dropTarget=0;collapsible=0;recursiveResize=0;expand=0;fontStyle=0;fillColor=none;strokeColor=inherit;" vertex="1" parent="Jo7Nahg0QfTr96RgWeuI-180">
          <mxGeometry y="74" width="630" height="36" as="geometry" />
        </mxCell>
        <mxCell id="Jo7Nahg0QfTr96RgWeuI-190" value="titre" style="connectable=0;recursiveResize=0;strokeColor=inherit;fillColor=none;align=center;whiteSpace=wrap;html=1;" vertex="1" parent="Jo7Nahg0QfTr96RgWeuI-189">
          <mxGeometry width="210" height="36" as="geometry">
            <mxRectangle width="210" height="36" as="alternateBounds" />
          </mxGeometry>
        </mxCell>
        <mxCell id="Jo7Nahg0QfTr96RgWeuI-191" value="varchar" style="connectable=0;recursiveResize=0;strokeColor=inherit;fillColor=none;align=center;whiteSpace=wrap;html=1;" vertex="1" parent="Jo7Nahg0QfTr96RgWeuI-189">
          <mxGeometry x="210" width="210" height="36" as="geometry">
            <mxRectangle width="210" height="36" as="alternateBounds" />
          </mxGeometry>
        </mxCell>
        <mxCell id="Jo7Nahg0QfTr96RgWeuI-192" value="NOT_NULL" style="connectable=0;recursiveResize=0;strokeColor=inherit;fillColor=none;align=center;whiteSpace=wrap;html=1;" vertex="1" parent="Jo7Nahg0QfTr96RgWeuI-189">
          <mxGeometry x="420" width="210" height="36" as="geometry">
            <mxRectangle width="210" height="36" as="alternateBounds" />
          </mxGeometry>
        </mxCell>
        <mxCell id="Jo7Nahg0QfTr96RgWeuI-193" value="" style="childLayout=tableLayout;recursiveResize=0;shadow=0;fillColor=none;" vertex="1" parent="1">
          <mxGeometry x="1160" y="1440" width="630" height="110" as="geometry" />
        </mxCell>
        <mxCell id="Jo7Nahg0QfTr96RgWeuI-194" value="" style="shape=tableRow;horizontal=0;startSize=0;swimlaneHead=0;swimlaneBody=0;top=0;left=0;bottom=0;right=0;dropTarget=0;collapsible=0;recursiveResize=0;expand=0;fontStyle=0;fillColor=none;strokeColor=inherit;" vertex="1" parent="Jo7Nahg0QfTr96RgWeuI-193">
          <mxGeometry width="630" height="36" as="geometry" />
        </mxCell>
        <mxCell id="Jo7Nahg0QfTr96RgWeuI-195" value="photo" style="connectable=0;recursiveResize=0;strokeColor=inherit;fillColor=none;align=center;whiteSpace=wrap;html=1;" vertex="1" parent="Jo7Nahg0QfTr96RgWeuI-194">
          <mxGeometry width="210" height="36" as="geometry">
            <mxRectangle width="210" height="36" as="alternateBounds" />
          </mxGeometry>
        </mxCell>
        <mxCell id="Jo7Nahg0QfTr96RgWeuI-196" value="varchar" style="connectable=0;recursiveResize=0;strokeColor=inherit;fillColor=none;align=center;whiteSpace=wrap;html=1;" vertex="1" parent="Jo7Nahg0QfTr96RgWeuI-194">
          <mxGeometry x="210" width="210" height="36" as="geometry">
            <mxRectangle width="210" height="36" as="alternateBounds" />
          </mxGeometry>
        </mxCell>
        <mxCell id="Jo7Nahg0QfTr96RgWeuI-197" value="NOT_NULL" style="connectable=0;recursiveResize=0;strokeColor=inherit;fillColor=none;align=center;whiteSpace=wrap;html=1;" vertex="1" parent="Jo7Nahg0QfTr96RgWeuI-194">
          <mxGeometry x="420" width="210" height="36" as="geometry">
            <mxRectangle width="210" height="36" as="alternateBounds" />
          </mxGeometry>
        </mxCell>
        <mxCell id="Jo7Nahg0QfTr96RgWeuI-198" style="shape=tableRow;horizontal=0;startSize=0;swimlaneHead=0;swimlaneBody=0;top=0;left=0;bottom=0;right=0;dropTarget=0;collapsible=0;recursiveResize=0;expand=0;fontStyle=0;fillColor=none;strokeColor=inherit;" vertex="1" parent="Jo7Nahg0QfTr96RgWeuI-193">
          <mxGeometry y="36" width="630" height="38" as="geometry" />
        </mxCell>
        <mxCell id="Jo7Nahg0QfTr96RgWeuI-199" value="date" style="connectable=0;recursiveResize=0;strokeColor=inherit;fillColor=none;align=center;whiteSpace=wrap;html=1;" vertex="1" parent="Jo7Nahg0QfTr96RgWeuI-198">
          <mxGeometry width="210" height="38" as="geometry">
            <mxRectangle width="210" height="38" as="alternateBounds" />
          </mxGeometry>
        </mxCell>
        <mxCell id="Jo7Nahg0QfTr96RgWeuI-200" value="date" style="connectable=0;recursiveResize=0;strokeColor=inherit;fillColor=none;align=center;whiteSpace=wrap;html=1;" vertex="1" parent="Jo7Nahg0QfTr96RgWeuI-198">
          <mxGeometry x="210" width="210" height="38" as="geometry">
            <mxRectangle width="210" height="38" as="alternateBounds" />
          </mxGeometry>
        </mxCell>
        <mxCell id="Jo7Nahg0QfTr96RgWeuI-201" value="NOT_NULL" style="connectable=0;recursiveResize=0;strokeColor=inherit;fillColor=none;align=center;whiteSpace=wrap;html=1;" vertex="1" parent="Jo7Nahg0QfTr96RgWeuI-198">
          <mxGeometry x="420" width="210" height="38" as="geometry">
            <mxRectangle width="210" height="38" as="alternateBounds" />
          </mxGeometry>
        </mxCell>
        <mxCell id="Jo7Nahg0QfTr96RgWeuI-202" style="shape=tableRow;horizontal=0;startSize=0;swimlaneHead=0;swimlaneBody=0;top=0;left=0;bottom=0;right=0;dropTarget=0;collapsible=0;recursiveResize=0;expand=0;fontStyle=0;fillColor=none;strokeColor=inherit;" vertex="1" parent="Jo7Nahg0QfTr96RgWeuI-193">
          <mxGeometry y="74" width="630" height="36" as="geometry" />
        </mxCell>
        <mxCell id="Jo7Nahg0QfTr96RgWeuI-203" value="prix_total" style="connectable=0;recursiveResize=0;strokeColor=inherit;fillColor=none;align=center;whiteSpace=wrap;html=1;" vertex="1" parent="Jo7Nahg0QfTr96RgWeuI-202">
          <mxGeometry width="210" height="36" as="geometry">
            <mxRectangle width="210" height="36" as="alternateBounds" />
          </mxGeometry>
        </mxCell>
        <mxCell id="Jo7Nahg0QfTr96RgWeuI-204" value="int" style="connectable=0;recursiveResize=0;strokeColor=inherit;fillColor=none;align=center;whiteSpace=wrap;html=1;" vertex="1" parent="Jo7Nahg0QfTr96RgWeuI-202">
          <mxGeometry x="210" width="210" height="36" as="geometry">
            <mxRectangle width="210" height="36" as="alternateBounds" />
          </mxGeometry>
        </mxCell>
        <mxCell id="Jo7Nahg0QfTr96RgWeuI-205" value="NOT_NULL" style="connectable=0;recursiveResize=0;strokeColor=inherit;fillColor=none;align=center;whiteSpace=wrap;html=1;" vertex="1" parent="Jo7Nahg0QfTr96RgWeuI-202">
          <mxGeometry x="420" width="210" height="36" as="geometry">
            <mxRectangle width="210" height="36" as="alternateBounds" />
          </mxGeometry>
        </mxCell>
        <mxCell id="Jo7Nahg0QfTr96RgWeuI-207" value="&lt;font style=&quot;font-size: 21px;&quot;&gt;Diagramme MCD&lt;/font&gt;" style="rounded=0;whiteSpace=wrap;html=1;" vertex="1" parent="1">
          <mxGeometry x="335" y="830" width="220" height="50" as="geometry" />
        </mxCell>
      </root>
    </mxGraphModel>
  </diagram>
</mxfile>
